<?xml version="1.0" encoding="UTF-8" standalone="no" ?>
<!DOCTYPE svg PUBLIC "-//W3C//DTD SVG 1.1//EN" "http://www.w3.org/Graphics/SVG/1.1/DTD/svg11.dtd">
<svg xmlns="http://www.w3.org/2000/svg" xmlns:xlink="http://www.w3.org/1999/xlink" version="1.1" width="137.99" height="137.99" xml:space="preserve">
<desc>Created with Fabric.js 1.6.0-rc.1</desc>
<defs></defs>
<g style="stroke: none; stroke-width: 1; stroke-dasharray: none; stroke-linecap: butt; stroke-linejoin: miter; stroke-miterlimit: 10; fill: none; fill-rule: nonzero; opacity: 1;" transform="translate(10 10) scale(0.23 0.23)" >
  <path d="M 503.916 450.021 H 8.084 v 32.337 h 226.358 l 0 0 c 0 11.906 9.651 21.558 21.558 21.558 l 0 0 c 11.906 0 21.558 -9.651 21.558 -21.558 l 0 0 h 226.358 V 450.021 z" style="stroke: none; stroke-width: 1; stroke-dasharray: none; stroke-linecap: butt; stroke-linejoin: miter; stroke-miterlimit: 10; fill: #9A7BD6; fill-rule: nonzero; opacity: 1;" transform=" matrix(1 0 0 1 0 0) " stroke-linecap="round" />
  <path d="M 18.863 385.347 h 172.463 c 35.718 0 64.674 28.956 64.674 64.674 l 0 0 H 18.863 V 385.347 z" style="stroke: none; stroke-width: 1; stroke-dasharray: none; stroke-linecap: butt; stroke-linejoin: miter; stroke-miterlimit: 10; fill: #ffffff; fill-rule: nonzero; opacity: 1;" transform=" matrix(1 0 0 1 0 0) " stroke-linecap="round" />
  <path d="M 493.137 385.347 H 320.674 c -35.718 0 -64.674 28.956 -64.674 64.674 l 0 0 h 237.137 V 385.347 z" style="stroke: none; stroke-width: 1; stroke-dasharray: none; stroke-linecap: butt; stroke-linejoin: miter; stroke-miterlimit: 10; fill: #ffffff; fill-rule: nonzero; opacity: 1;" transform=" matrix(1 0 0 1 0 0) " stroke-linecap="round" />
  <path d="M 396.126 148.211 C 396.126 70.821 333.39 8.084 256 8.084 S 115.874 70.821 115.874 148.211 c 0 66.718 46.63 122.54 109.076 136.668 L 256 331.453 l 31.05 -46.574 C 349.496 270.751 396.126 214.929 396.126 148.211 z" style="stroke: none; stroke-width: 1; stroke-dasharray: none; stroke-linecap: butt; stroke-linejoin: miter; stroke-miterlimit: 10; fill: #61B59B; fill-rule: nonzero; opacity: 1;" transform=" matrix(1 0 0 1 0 0) " stroke-linecap="round" />
  <path d="M 320.674 138.309 c 0 -36.203 -28.956 -65.551 -64.674 -65.551 s -64.674 29.349 -64.674 65.551 c 0 19.648 8.53 37.274 22.042 49.286 c 9.357 8.319 14.915 20.091 14.915 32.612 v 22.526 h 55.435 v -22.526 c 0 -12.521 5.558 -24.293 14.915 -32.613 C 312.143 175.583 320.674 157.958 320.674 138.309 z" style="stroke: none; stroke-width: 1; stroke-dasharray: none; stroke-linecap: butt; stroke-linejoin: miter; stroke-miterlimit: 10; fill: #FFEBCC; fill-rule: nonzero; opacity: 1;" transform=" matrix(1 0 0 1 0 0) " stroke-linecap="round" />
  <path d="M 227.635 212.884 c 0.421 2.398 0.648 4.845 0.648 7.323 v 22.526 h 55.435 v -22.526 c 0 -2.478 0.226 -4.925 0.648 -7.323 H 227.635 z" style="stroke: none; stroke-width: 1; stroke-dasharray: none; stroke-linecap: butt; stroke-linejoin: miter; stroke-miterlimit: 10; fill: #46b7d0; fill-rule: nonzero; opacity: 1;" transform=" matrix(1 0 0 1 0 0) " stroke-linecap="round" />
  <circle cx="255.996" cy="137.43599999999998" r="37.726" style="stroke: none; stroke-width: 1; stroke-dasharray: none; stroke-linecap: butt; stroke-linejoin: miter; stroke-miterlimit: 10; fill: #F4C94E; fill-rule: nonzero; opacity: 1;" transform="  matrix(1 0 0 1 0 0) "/>
  <path d="M 361.095 126.653 h -16.168 c 0 -5.465 -0.566 -10.92 -1.683 -16.214 l 15.82 -3.337 C 360.411 113.492 361.095 120.069 361.095 126.653 z M 338.893 96.487 c -12.208 -29.147 -40.515 -47.981 -72.114 -47.981 V 32.337 c 38.134 0 72.294 22.728 87.027 57.903 L 338.893 96.487 z" style="stroke: none; stroke-width: 1; stroke-dasharray: none; stroke-linecap: butt; stroke-linejoin: miter; stroke-miterlimit: 10; fill: #ffffff; fill-rule: nonzero; opacity: 1;" transform=" matrix(1 0 0 1 0 0) " stroke-linecap="round" />
  <path d="M 501.221 441.937 v -64.674 H 320.674 c -28.135 0 -52.573 16.063 -64.674 39.491 c -12.1 -23.428 -36.538 -39.491 -64.674 -39.491 H 10.779 v 64.674 H 0 v 48.505 h 227.479 C 231.006 502.87 242.457 512 256 512 s 24.994 -9.13 28.521 -21.558 H 512 v -48.505 H 501.221 z M 320.674 393.432 h 164.379 V 409.6 H 320.674 v 16.168 h 164.379 v 16.168 H 264.66 C 268.595 414.549 292.215 393.432 320.674 393.432 z M 26.947 425.768 h 164.379 V 409.6 H 26.947 v -16.168 h 164.379 c 28.459 0 52.078 21.117 56.014 48.505 H 26.947 V 425.768 z M 495.832 474.274 H 269.474 v 8.084 c 0 7.43 -6.044 13.474 -13.474 13.474 c -7.43 0 -13.474 -6.044 -13.474 -13.474 v -8.084 H 16.168 v -16.168 h 231.747 h 16.168 h 231.747 V 474.274 z" style="stroke: none; stroke-width: 1; stroke-dasharray: none; stroke-linecap: butt; stroke-linejoin: miter; stroke-miterlimit: 10; fill: #73cad9; fill-rule: nonzero; opacity: 1;" transform=" matrix(1 0 0 1 0 0) " stroke-linecap="round" />
  <path d="M 219.986 292.006 L 256 346.027 l 36.014 -54.021 c 30.999 -7.752 59.05 -25.652 79.277 -50.656 c 21.229 -26.243 32.92 -59.321 32.92 -93.14 C 404.211 66.487 337.724 0 256 0 S 107.789 66.487 107.789 148.211 c 0 33.819 11.691 66.896 32.92 93.14 C 160.935 266.354 188.986 284.253 219.986 292.006 z M 256 16.168 c 72.809 0 132.042 59.234 132.042 132.042 c 0 62.135 -42.263 115.092 -102.776 128.784 l -3.151 0.712 L 256 316.878 l -26.115 -39.172 l -3.151 -0.712 c -60.513 -13.691 -102.776 -66.648 -102.776 -128.784 C 123.958 75.402 183.191 16.168 256 16.168 z" style="stroke: none; stroke-width: 1; stroke-dasharray: none; stroke-linecap: butt; stroke-linejoin: miter; stroke-miterlimit: 10; fill: #73cad9; fill-rule: nonzero; opacity: 1;" transform=" matrix(1 0 0 1 0 0) " stroke-linecap="round" />
  <path d="M 207.996 193.637 c 7.754 6.894 12.202 16.579 12.202 26.57 v 30.61 h 71.603 v -30.61 c 0 -9.991 4.447 -19.676 12.202 -26.57 c 15.732 -13.988 24.755 -34.154 24.755 -55.328 c 0 -40.602 -32.639 -73.635 -72.758 -73.635 s -72.758 33.033 -72.758 73.635 C 183.242 159.483 192.265 179.649 207.996 193.637 z M 236.367 234.649 v -13.681 h 39.267 v 13.681 H 236.367 z M 256 80.842 c 31.204 0 56.589 25.78 56.589 57.467 c 0 16.561 -7.045 32.323 -19.329 43.244 c -7.168 6.373 -12.367 14.439 -15.192 23.246 h -13.985 v -44.656 l 18.83 -16.658 l -10.712 -12.11 L 256 145.709 l -16.202 -14.333 l -10.712 12.11 l 18.83 16.658 V 204.8 h -13.985 c -2.824 -8.806 -8.024 -16.873 -15.192 -23.246 c -12.284 -10.922 -19.329 -26.683 -19.329 -43.245 C 199.411 106.622 224.796 80.842 256 80.842 z" style="stroke: none; stroke-width: 1; stroke-dasharray: none; stroke-linecap: butt; stroke-linejoin: miter; stroke-miterlimit: 10; fill: #73cad9; fill-rule: nonzero; opacity: 1;" transform=" matrix(1 0 0 1 0 0) " stroke-linecap="round" />
  <rect x="72.76" y="140.13" rx="0" ry="0" width="16.17" height="16.17" style="stroke: none; stroke-width: 1; stroke-dasharray: none; stroke-linecap: butt; stroke-linejoin: miter; stroke-miterlimit: 10; fill: #73cad9; fill-rule: nonzero; opacity: 1;" transform=" matrix(1 0 0 1 0 0) "/>
  <rect x="40.42" y="140.13" rx="0" ry="0" width="16.17" height="16.17" style="stroke: none; stroke-width: 1; stroke-dasharray: none; stroke-linecap: butt; stroke-linejoin: miter; stroke-miterlimit: 10; fill: #73cad9; fill-rule: nonzero; opacity: 1;" transform=" matrix(1 0 0 1 0 0) "/>
  <rect x="8.08" y="140.13" rx="0" ry="0" width="16.17" height="16.17" style="stroke: none; stroke-width: 1; stroke-dasharray: none; stroke-linecap: butt; stroke-linejoin: miter; stroke-miterlimit: 10; fill: #73cad9; fill-rule: nonzero; opacity: 1;" transform=" matrix(1 0 0 1 0 0) "/>
  <rect x="487.75" y="140.13" rx="0" ry="0" width="16.17" height="16.17" style="stroke: none; stroke-width: 1; stroke-dasharray: none; stroke-linecap: butt; stroke-linejoin: miter; stroke-miterlimit: 10; fill: #73cad9; fill-rule: nonzero; opacity: 1;" transform=" matrix(1 0 0 1 0 0) "/>
  <rect x="423.07" y="140.13" rx="0" ry="0" width="16.17" height="16.17" style="stroke: none; stroke-width: 1; stroke-dasharray: none; stroke-linecap: butt; stroke-linejoin: miter; stroke-miterlimit: 10; fill: #73cad9; fill-rule: nonzero; opacity: 1;" transform=" matrix(1 0 0 1 0 0) "/>
  <rect x="455.41" y="140.13" rx="0" ry="0" width="16.17" height="16.17" style="stroke: none; stroke-width: 1; stroke-dasharray: none; stroke-linecap: butt; stroke-linejoin: miter; stroke-miterlimit: 10; fill: #73cad9; fill-rule: nonzero; opacity: 1;" transform=" matrix(1 0 0 1 0 0) "/>
</g>
</svg>